<svg width="138" height="30" viewBox="0 0 138 30" fill="none" xmlns="http://www.w3.org/2000/svg">
<path d="M137.311 1.69189V8.62248L136.692 16.1713H132.17L131.551 8.62248V1.69189H137.311ZM134.415 17.9934C135.412 17.9934 136.183 18.232 136.725 18.7093C137.289 19.1865 137.571 19.8589 137.571 20.7266C137.571 21.5726 137.289 22.2342 136.725 22.7114C136.183 23.1886 135.412 23.4273 134.415 23.4273C133.46 23.4273 132.701 23.1886 132.137 22.7114C131.573 22.2342 131.291 21.5726 131.291 20.7266C131.291 19.8589 131.573 19.1865 132.137 18.7093C132.701 18.232 133.46 17.9934 134.415 17.9934Z" fill="#222222"/>
<path d="M111.771 30.0001V6.89814H116.749L117.042 12.7875L116.391 12.1042C116.543 11.0196 116.879 10.0652 117.4 9.24087C117.92 8.41657 118.593 7.76581 119.417 7.28859C120.241 6.81137 121.185 6.57275 122.248 6.57275C123.593 6.57275 124.764 6.90898 125.762 7.58143C126.76 8.23219 127.53 9.18664 128.072 10.4448C128.636 11.6812 128.918 13.1888 128.918 14.9676C128.918 16.7463 128.636 18.2756 128.072 19.5554C127.508 20.8352 126.716 21.8114 125.697 22.4838C124.699 23.1563 123.528 23.4925 122.183 23.4925C120.708 23.4925 119.515 23.0587 118.603 22.191C117.692 21.3016 117.085 20.1845 116.781 18.8396L117.302 18.0587V30.0001H111.771ZM120.295 19.4253C121.25 19.4253 121.998 19.0782 122.541 18.384C123.083 17.6682 123.354 16.5511 123.354 15.0326C123.354 13.5142 123.083 12.4079 122.541 11.7138C122.02 10.9979 121.282 10.64 120.328 10.64C119.721 10.64 119.189 10.8135 118.734 11.1606C118.278 11.486 117.92 11.9741 117.66 12.6248C117.421 13.2756 117.302 14.0782 117.302 15.0326C117.302 15.9437 117.41 16.7354 117.627 17.4079C117.866 18.0587 118.213 18.5576 118.669 18.9046C119.124 19.2517 119.666 19.4253 120.295 19.4253Z" fill="#222222"/>
<path d="M97.7733 23.4923C96.667 23.4923 95.6909 23.3079 94.8449 22.9392C94.0206 22.5487 93.3698 21.9305 92.8926 21.0845C92.4154 20.2385 92.1768 19.1322 92.1768 17.7656V6.89795H97.7082V16.4641C97.7082 17.5053 97.9143 18.232 98.3264 18.6442C98.7386 19.0563 99.3243 19.2624 100.083 19.2624C100.474 19.2624 100.843 19.1973 101.19 19.0671C101.537 18.9153 101.841 18.6984 102.101 18.4164C102.361 18.1127 102.556 17.7331 102.687 17.2776C102.838 16.8003 102.914 16.2472 102.914 15.6181V6.89795H108.446V23.1669H103.5L103.337 20.1084C102.817 21.258 102.09 22.1149 101.157 22.6789C100.224 23.2212 99.0965 23.4923 97.7733 23.4923Z" fill="#222222"/>
<path d="M72.749 23.167V0H78.2805V9.859C78.7577 8.77441 79.441 7.96096 80.3304 7.41866C81.2197 6.85466 82.2501 6.57267 83.4215 6.57267C84.5495 6.57267 85.5256 6.78959 86.3499 7.22343C87.1959 7.65727 87.8575 8.29718 88.3347 9.14317C88.8119 9.98916 89.0505 11.0521 89.0505 12.3319V23.167H83.5191V13.8612C83.5191 12.6898 83.3022 11.8872 82.8683 11.4534C82.4562 10.9978 81.903 10.7701 81.2089 10.7701C80.6883 10.7701 80.2002 10.9002 79.7447 11.1605C79.2892 11.4208 78.9312 11.833 78.6709 12.397C78.4106 12.961 78.2805 13.6985 78.2805 14.6095V23.167H72.749Z" fill="#222222"/>
<path d="M62.6493 6.57275C64.2979 6.57275 65.6645 6.81137 66.7491 7.28859C67.8554 7.74412 68.7122 8.36234 69.3196 9.14325C69.9486 9.90247 70.3391 10.7268 70.4909 11.6161L65.3825 13.3081C65.2306 12.3754 64.9486 11.6812 64.5365 11.2257C64.146 10.7485 63.5712 10.5098 62.812 10.5098C62.1178 10.5098 61.5321 10.6725 61.0549 10.9979C60.5994 11.3016 60.2523 11.8005 60.0137 12.4947C59.7751 13.1671 59.6558 14.0348 59.6558 15.0977C59.6558 16.1606 59.7859 17.0283 60.0462 17.7007C60.3066 18.3515 60.6753 18.8287 61.1525 19.1324C61.6298 19.4144 62.1938 19.5554 62.8445 19.5554C63.3868 19.5554 63.8315 19.4578 64.1786 19.2626C64.5473 19.0456 64.851 18.742 65.0896 18.3515C65.3282 17.961 65.4801 17.4838 65.5452 16.9198L70.5235 18.5142C70.3716 19.4686 69.9595 20.3255 69.287 21.0847C68.6363 21.8222 67.7686 22.4079 66.684 22.8417C65.5994 23.2756 64.3304 23.4925 62.8771 23.4925C61.0983 23.4925 59.5473 23.1671 58.2241 22.5164C56.9009 21.8439 55.8814 20.8786 55.1655 19.6205C54.4497 18.3407 54.0918 16.8114 54.0918 15.0326C54.0918 13.2539 54.4497 11.7354 55.1655 10.4773C55.8814 9.19748 56.8792 8.23219 58.159 7.58143C59.4606 6.90898 60.9573 6.57275 62.6493 6.57275Z" fill="#222222"/>
<path d="M48.1852 1.72461V17.3754C48.1852 18.1563 48.3696 18.7203 48.7383 19.0673C49.1288 19.3927 49.6602 19.5554 50.3327 19.5554C50.8533 19.5554 51.298 19.5012 51.6667 19.3927C52.0572 19.2626 52.4043 19.0782 52.708 18.8396L53.2936 22.2561C52.7513 22.6465 52.0681 22.9502 51.2438 23.1671C50.4195 23.3841 49.5735 23.4925 48.7058 23.4925C47.4694 23.4925 46.3956 23.319 45.4845 22.9719C44.5952 22.6248 43.901 22.0717 43.4021 21.3125C42.9249 20.5532 42.6754 19.5446 42.6537 18.2864V3.25389L48.1852 1.72461ZM53.0333 6.89815V10.8352H39.8555V6.89815H53.0333Z" fill="#222222"/>
<path d="M31.3224 23.4925C29.5219 23.4925 27.9601 23.1563 26.6369 22.4838C25.3354 21.8114 24.3267 20.8461 23.6109 19.5879C22.895 18.3298 22.5371 16.8114 22.5371 15.0326C22.5371 13.2539 22.895 11.7354 23.6109 10.4773C24.3267 9.21918 25.3245 8.25388 26.6044 7.58143C27.9059 6.90898 29.3918 6.57275 31.0621 6.57275C32.7757 6.57275 34.2291 6.90898 35.4221 7.58143C36.6369 8.23219 37.5588 9.14325 38.1879 10.3146C38.8169 11.4643 39.1315 12.7875 39.1315 14.2843C39.1315 14.6747 39.1206 15.0652 39.0989 15.4556C39.0772 15.8461 39.0447 16.1715 39.0013 16.4318H26.1163V13.4708H36.561L33.9254 14.4795C33.9254 13.178 33.6868 12.1801 33.2096 11.486C32.754 10.7918 32.0382 10.4448 31.0621 10.4448C30.3679 10.4448 29.7714 10.6075 29.2725 10.9328C28.7952 11.2582 28.4265 11.768 28.1662 12.4621C27.9276 13.1563 27.8083 14.0456 27.8083 15.1302C27.8083 16.1931 27.9493 17.0608 28.2313 17.7333C28.5132 18.384 28.9145 18.8613 29.4352 19.1649C29.9558 19.4469 30.5848 19.5879 31.3224 19.5879C32.1467 19.5879 32.7974 19.4253 33.2746 19.0999C33.7736 18.7745 34.1423 18.319 34.3809 17.7333L38.8061 19.1975C38.5024 20.1302 37.971 20.922 37.2117 21.5728C36.4742 22.2018 35.5848 22.679 34.5436 23.0044C33.5241 23.3298 32.4503 23.4925 31.3224 23.4925Z" fill="#222222"/>
<path d="M9.79393 23.492C7.88504 23.492 6.18221 23.069 4.68547 22.2231C3.21041 21.3771 2.06074 20.1298 1.23644 18.4812C0.412148 16.8326 0 14.8261 0 12.4617C0 10.1406 0.43384 8.1558 1.30152 6.50721C2.1692 4.85862 3.40564 3.58964 5.01085 2.70027C6.63775 1.8109 8.54664 1.36621 10.7375 1.36621C13.167 1.36621 15.1302 1.8109 16.6269 2.70027C18.1237 3.56795 19.2842 4.95623 20.1085 6.86513L14.9349 8.91502C14.6529 7.80873 14.154 7.00613 13.4382 6.50721C12.7223 6.00829 11.833 5.75884 10.7701 5.75884C9.70716 5.75884 8.7961 6.01914 8.03688 6.53975C7.27766 7.03866 6.70282 7.78704 6.31237 8.78487C5.92191 9.76101 5.72668 10.9758 5.72668 12.4291C5.72668 13.9476 5.92191 15.2165 6.31237 16.2361C6.72451 17.2556 7.32104 18.0148 8.10195 18.5137C8.90456 18.9909 9.89154 19.2296 11.0629 19.2296C11.692 19.2296 12.2668 19.1536 12.7874 19.0018C13.308 18.8499 13.7636 18.633 14.154 18.351C14.5445 18.0473 14.8482 17.6786 15.0651 17.2447C15.282 16.7892 15.3905 16.2578 15.3905 15.6504V15.325H10.4772V11.5831H20.141V23.1667H16.3341L15.9111 18.1233L16.8221 18.9042C16.3666 20.3792 15.5423 21.5181 14.3492 22.3207C13.1779 23.1016 11.6594 23.492 9.79393 23.492Z" fill="#222222"/>
</svg>
