<?xml version="1.0" encoding="UTF-8"?>
<svg id="Layer_2" data-name="Layer 2" xmlns="http://www.w3.org/2000/svg" viewBox="0 0 121.01 200">
  <defs>
    <style>
      .cls-1 {
        fill: #065;
      }

      .cls-1, .cls-2, .cls-3, .cls-4 {
        stroke-width: 0px;
      }

      .cls-2 {
        fill: #4d7c78;
      }

      .cls-3 {
        fill: #afcfcc;
      }

      .cls-4 {
        fill: #c6b198;
      }
    </style>
  </defs>
  <g id="Layer_5" data-name="Layer 5">
    <g>
      <path class="cls-4" d="M24.9,126.88h84.82v48.14c0,13.79-11.19,24.98-24.98,24.98h-34.86c-13.79,0-24.98-11.19-24.98-24.98v-48.14h0Z"/>
      <rect class="cls-1" x="63.75" y="37.25" width="7.13" height="89.62"/>
      <g>
        <circle class="cls-3" cx="92.35" cy="104.31" r="17.37"/>
        <path class="cls-1" d="M80.67,82.88l-2.49,6.73c-.1.26-.3.46-.56.56l-6.73,2.49c-.82.3-.82,1.47,0,1.77l6.73,2.49c.26.1.46.3.56.56l2.49,6.73c.3.82,1.47.82,1.77,0l2.49-6.73c.1-.26.3-.46.56-.56l6.73-2.49c.82-.3.82-1.47,0-1.77l-6.73-2.49c-.26-.1-.46-.3-.56-.56l-2.49-6.73c-.3-.82-1.47-.82-1.77,0Z"/>
      </g>
      <g>
        <circle class="cls-3" cx="44.6" cy="58.71" r="12.77"/>
        <path class="cls-1" d="M53.19,42.96l1.83,4.95c.07.19.22.34.41.41l4.95,1.83c.6.22.6,1.08,0,1.3l-4.95,1.83c-.19.07-.34.22-.41.41l-1.83,4.95c-.22.6-1.08.6-1.3,0l-1.83-4.95c-.07-.19-.22-.34-.41-.41l-4.95-1.83c-.6-.22-.6-1.08,0-1.3l4.95-1.83c.19-.07.34-.22.41-.41l1.83-4.95c.22-.6,1.08-.6,1.3,0Z"/>
      </g>
      <path class="cls-1" d="M64.88,39.67c-8.35-6.83-22.59-31.62-23.2-32.67l2.32-1.33c.15.25,14.6,25.41,22.57,31.93l-1.69,2.07Z"/>
      <path class="cls-1" d="M67.31,112.15c-16.99,0-36.99-14.25-37.83-14.85l1.56-2.17c.2.14,20.15,14.35,36.27,14.35v2.67Z"/>
      <path class="cls-1" d="M67.8,83.02l-.98-2.49c8.34-3.28,15.92-10.36,16-10.43l1.83,1.95c-.32.3-8.04,7.5-16.85,10.97Z"/>
      <g>
        <path class="cls-1" d="M15.19,114.57l6.27-9.83s-9.63,5.03-18.85-1.8l6.78-9.14s-8.16-4.34-9.39-13.04l52.83,26.96s-15.3,18.69-37.64,6.84Z"/>
        <path class="cls-2" d="M32.01,84.08l4.28-10.84c22.71,11.14,16.54,34.5,16.54,34.5L0,80.77c7.77-4.11,16.07-.05,16.07-.05l3.42-10.86c10.94,3.46,12.51,14.21,12.51,14.21Z"/>
      </g>
      <g>
        <path class="cls-1" d="M114.26,67.07l-8.1-6.12s9.4,1.19,14.86-7.18l-8.31-5.41s5.35-6.02,3.72-13.5l-34.98,38.05s18.17,10.63,32.82-5.83Z"/>
        <path class="cls-2" d="M91.27,47.26l-6.78-7.56c-15.17,15.99-3.05,33.2-3.05,33.2l34.98-38.05c-7.59-1-13.14,4.84-13.14,4.84l-6.09-7.83c-7.88,6.14-5.91,15.41-5.91,15.41Z"/>
      </g>
      <g>
        <path class="cls-1" d="M36.28,25.92l6.5-4.23s-7.22.4-10.94-6.27l6.63-3.68s-3.76-4.87-2.11-10.49l24.62,30.87s-14.41,7.13-24.7-6.2Z"/>
        <path class="cls-2" d="M54.86,12.06l5.57-5.4c10.7,13,.55,25.46.55,25.46L36.36,1.25c5.84-.36,9.76,4.39,9.76,4.39l5.06-5.64c5.68,5.1,3.68,12.06,3.68,12.06Z"/>
      </g>
      <path class="cls-1" d="M53.08,51.51l-1.08-1.41c.91-.7,9.05-6.78,13.66-4.98l-.65,1.66c-3.12-1.22-9.67,3.01-11.93,4.74Z"/>
      <path class="cls-1" d="M80.88,94.14c-.06-.07-5.96-6.7-12.33-6.31l-.11-1.78c7.25-.46,13.52,6.61,13.78,6.91l-1.34,1.17Z"/>
    </g>
  </g>
</svg>