<?xml version="1.0" encoding="UTF-8"?>
<svg id="Layer_2" data-name="Layer 2" xmlns="http://www.w3.org/2000/svg" viewBox="0 0 200 149.27">
  <defs>
    <style>
      .cls-1 {
        fill: #efe37d;
      }

      .cls-1, .cls-2, .cls-3, .cls-4, .cls-5, .cls-6, .cls-7, .cls-8 {
        stroke-width: 0px;
      }

      .cls-2 {
        fill: #94b6ef;
      }

      .cls-3 {
        fill: #065;
      }

      .cls-4 {
        fill: #000;
      }

      .cls-5 {
        fill: #afcfcc;
      }

      .cls-6 {
        fill: #e3281c;
      }

      .cls-7 {
        fill: #f1938e;
      }

      .cls-8 {
        fill: #e5e5e5;
      }
    </style>
  </defs>
  <g id="Layer_5" data-name="Layer 5">
    <g>
      <circle class="cls-6" cx="116.35" cy="83.49" r="65.78"/>
      <path class="cls-3" d="M160.61,2.33l9.44,25.5c.36.98,1.13,1.75,2.11,2.11l25.5,9.44c3.11,1.15,3.11,5.55,0,6.7l-25.5,9.44c-.98.36-1.75,1.13-2.11,2.11l-9.44,25.5c-1.15,3.11-5.55,3.11-6.7,0l-9.44-25.5c-.36-.98-1.13-1.75-2.11-2.11l-25.5-9.44c-3.11-1.15-3.11-5.55,0-6.7l25.5-9.44c.98-.36,1.75-1.13,2.11-2.11l9.44-25.5c1.15-3.11,5.55-3.11,6.7,0Z"/>
      <rect class="cls-2" x="45.34" y="121.32" width="16.38" height="16.38"/>
      <rect class="cls-2" x="171.71" y="65.11" width="16.38" height="16.38"/>
      <rect class="cls-7" x="7.38" y="50.23" width="16.38" height="16.38"/>
      <rect class="cls-1" x="47.35" y="29.65" width="16.38" height="16.38" transform="translate(-10.49 50.36) rotate(-45)"/>
      <rect class="cls-1" x="154.05" y="117.93" width="16.38" height="16.38" transform="translate(-41.66 151.65) rotate(-45)"/>
      <rect class="cls-5" x="3.39" y="107.75" width="16.38" height="16.38" transform="translate(-78.59 42.15) rotate(-45)"/>
      <path class="cls-8" d="M92.75,110.62h-47.52c-15.23-.27-27.33-12.8-27.06-27.95.22-12.66,10.69-22.78,23.37-22.56,5.17.09,10,2.19,13.6,5.92s5.52,8.62,5.43,13.8c-.08,4.41-1.87,8.52-5.04,11.58-3.17,3.06-7.34,4.71-11.75,4.63-7.83-.14-14.09-6.62-13.95-14.45l10,.18c-.04,2.32,1.81,4.23,4.13,4.27,3.6.07,6.55-2.8,6.61-6.38.04-2.5-.89-4.88-2.63-6.68s-4.08-2.82-6.58-2.86c-3.47-.07-6.74,1.23-9.24,3.64s-3.9,5.64-3.96,9.1c-.17,9.63,7.52,17.6,17.15,17.77h47.43s0,10,0,10Z"/>
      <g>
        <path class="cls-4" d="M113.73,80.08c-4.17,0-7.56,3.39-7.56,7.56v.5h2.5v-.5c0-2.79,2.27-5.06,5.06-5.06s5.06,2.27,5.06,5.06v.5h2.5v-.5c0-4.17-3.39-7.56-7.56-7.56Z"/>
        <path class="cls-4" d="M89.68,80.08c-4.17,0-7.56,3.39-7.56,7.56v.5h2.5v-.5c0-2.79,2.27-5.06,5.06-5.06s5.06,2.27,5.06,5.06v.5h2.5v-.5c0-4.17-3.39-7.56-7.56-7.56Z"/>
      </g>
      <path class="cls-4" d="M96.74,97.41v-2c-3.24,0-5.88,2.64-5.88,5.88,0,2.03,1.04,3.83,2.61,4.88-1.57,1.06-2.61,2.85-2.61,4.88,0,3.24,2.64,5.88,5.88,5.88v-2c-2.14,0-3.88-1.74-3.88-3.88s1.74-3.88,3.88-3.88v-2c-2.14,0-3.88-1.74-3.88-3.88s1.74-3.88,3.88-3.88Z"/>
    </g>
  </g>
</svg>