<?xml version="1.0" encoding="UTF-8"?>
<svg id="Layer_2" data-name="Layer 2" xmlns="http://www.w3.org/2000/svg" viewBox="0 0 377.77 376.47">
  <defs>
    <style>
      .cls-1 {
        fill: #000;
      }

      .cls-1, .cls-2, .cls-3 {
        stroke-width: 0px;
      }

      .cls-2 {
        fill: #f9bc93;
      }

      .cls-3 {
        fill: #fff;
      }
    </style>
  </defs>
  <g id="Layer_3" data-name="Layer 3">
    <g>
      <polygon class="cls-2" points="377.77 216.03 291.87 239.29 325.36 321.75 242.19 290.07 220.81 376.47 172.15 301.95 104.08 359.28 108.5 270.39 19.73 276.77 75.56 207.45 0 160.43 85.91 137.17 52.42 54.72 135.59 86.4 156.96 0 205.62 74.52 273.7 17.18 269.27 106.07 358.04 99.7 302.21 169.01 377.77 216.03"/>
      <circle class="cls-3" cx="182.65" cy="180.24" r="98.82"/>
      <path class="cls-1" d="M281.47,163.3h-92.59v-7.08h-49.69v7.08h-20.64v-7.08h-49.69v12.07c0,10.97,8.97,19.94,19.94,19.94h9.81c10.97,0,19.94-8.97,19.94-19.94v-1.99h20.64v1.99c0,10.97,8.97,19.94,19.94,19.94h9.81c10.97,0,19.94-8.97,19.94-19.94v-1.99h92.59v-3Z"/>
      <path class="cls-1" d="M128.82,209.96c-11.32,0-18.52-6.5-18.62-6.59l2.04-2.2c.59.54,14.57,13.03,34.58-.15l1.65,2.51c-7.33,4.83-14,6.44-19.65,6.44Z"/>
    </g>
  </g>
</svg>