<?xml version="1.0" encoding="UTF-8"?>
<svg id="Layer_2" data-name="Layer 2" xmlns="http://www.w3.org/2000/svg" version="1.1" viewBox="0 0 237 243.4">
  <defs>
    <style>
      .cls-1 {
        fill: #000;
      }

      .cls-1, .cls-2 {
        stroke-width: 0px;
      }

      .cls-2 {
        fill: #ece600;
      }
    </style>
  </defs>
  <g id="Layer_4" data-name="Layer 4">
    <g>
      <g>
        <path class="cls-2" d="M130.7,0c28.9,66.2,1.5,144.2-63.7,177.3C45.5,188.2,22.5,192.9,0,192.1c35.3,41.1,95.2,54.5,145.7,28.9,59.2-30.1,82.9-102.5,52.8-161.7C183.9,30.3,159.1,9.9,130.7,0Z"/>
        <path class="cls-1" d="M140.7,132c-7.8,0-14.1-6.3-14.1-14.1h3c0,6.1,5,11.1,11.1,11.1s11.1-5,11.1-11.1h3c0,7.8-6.3,14.1-14.1,14.1Z"/>
        <path class="cls-1" d="M188.8,132c-7.8,0-14.1-6.3-14.1-14.1h3c0,6.1,5,11.1,11.1,11.1s11.1-5,11.1-11.1h3c0,7.8-6.3,14.1-14.1,14.1Z"/>
        <path class="cls-1" d="M163.6,155.4c-7.8,0-14.1-6.3-14.1-14.1h3c0,6.1,5,11.1,11.1,11.1s11.1-5,11.1-11.1h3c0,7.8-6.3,14.1-14.1,14.1Z"/>
      </g>
      <path class="cls-2" d="M73.1,79l2.9,8.9c0,0,.1.2.2.2h9.3c.8,0,1.2,1.1.5,1.6l-7.6,5.5c0,0-.1.2,0,.2l2.9,8.9c.3.8-.7,1.5-1.3,1l-7.6-5.5c0,0-.2,0-.2,0l-7.6,5.5c-.7.5-1.6-.2-1.3-1l2.9-8.9c0,0,0-.2,0-.2l-7.6-5.5c-.7-.5-.3-1.6.5-1.6h9.4c0,0,.2,0,.2-.2l2.9-8.9c.3-.8,1.4-.8,1.6,0h0Z"/>
      <path class="cls-2" d="M223.7,217.1l2.9,8.9c0,0,.1.1.2.1h9.4c.8,0,1.2,1.1.5,1.6l-7.6,5.5c0,0-.1.1,0,.2l2.9,8.9c.3.8-.6,1.5-1.3,1l-7.6-5.5c0,0-.2,0-.2,0l-7.6,5.5c-.7.5-1.6-.2-1.3-1l2.9-8.9c0,0,0-.2,0-.2l-7.6-5.5c-.7-.5-.3-1.6.5-1.6h9.4c0,0,.2,0,.2-.1l2.9-8.9c.3-.8,1.4-.8,1.6,0h0Z"/>
    </g>
  </g>
</svg>