<svg width="137" height="188" viewBox="0 0 137 188" fill="none" xmlns="http://www.w3.org/2000/svg">
<g clip-path="url(#clip0_1078_21823)">
<path d="M34.9176 102.91C47.1786 102.91 57.1182 92.96 57.1182 80.6857C57.1182 68.4115 47.1786 58.4612 34.9176 58.4612C22.6566 58.4612 12.717 68.4115 12.717 80.6857C12.717 92.96 22.6566 102.91 34.9176 102.91Z" fill="#F3F2EF"/>
<path d="M66.0621 86.3907C75.1779 86.3907 82.5678 78.9929 82.5678 69.8672C82.5678 60.7415 75.1779 53.3436 66.0621 53.3436C56.9462 53.3436 49.5564 60.7415 49.5564 69.8672C49.5564 78.9929 56.9462 86.3907 66.0621 86.3907Z" fill="#F3F2EF"/>
<path d="M82.5679 100.419C91.6838 100.419 99.0736 93.0208 99.0736 83.8951C99.0736 74.7694 91.6838 67.3716 82.5679 67.3716C73.4521 67.3716 66.0623 74.7694 66.0623 83.8951C66.0623 93.0208 73.4521 100.419 82.5679 100.419Z" fill="#F3F2EF"/>
<path d="M101.385 116.97C113.646 116.97 123.586 107.019 123.586 94.7452C123.586 82.4709 113.646 72.5206 101.385 72.5206C89.1243 72.5206 79.1848 82.4709 79.1848 94.7452C79.1848 107.019 89.1243 116.97 101.385 116.97Z" fill="#F3F2EF"/>
<path d="M6.66528 72.5208L129.763 93.7399L127.604 106.294C122.429 136.379 93.8303 156.597 63.7778 151.417L49.5802 148.969C19.5277 143.789 -0.668139 115.156 4.50596 85.0746L6.66528 72.5208Z" fill="#94B6EF"/>
<path d="M0 113.362H137V127.331C137 160.812 109.845 187.996 76.4004 187.996H60.5996C27.155 188 0 160.816 0 127.335V113.366V113.362Z" fill="#FAE483"/>
<path d="M114.945 62.4354C124.572 62.4354 132.376 54.6227 132.376 44.9853C132.376 35.3479 124.572 27.5353 114.945 27.5353C105.318 27.5353 97.5139 35.3479 97.5139 44.9853C97.5139 54.6227 105.318 62.4354 114.945 62.4354Z" fill="#F3F2EF"/>
<path d="M30.9793 52.5512C35.7928 52.5512 39.6949 48.6449 39.6949 43.8262C39.6949 39.0075 35.7928 35.1012 30.9793 35.1012C26.1658 35.1012 22.2637 39.0075 22.2637 43.8262C22.2637 48.6449 26.1658 52.5512 30.9793 52.5512Z" fill="#F3F2EF"/>
<path d="M74.9785 52.5512C79.792 52.5512 83.6941 48.6449 83.6941 43.8262C83.6941 39.0075 79.792 35.1012 74.9785 35.1012C70.1651 35.1012 66.2629 39.0075 66.2629 43.8262C66.2629 48.6449 70.1651 52.5512 74.9785 52.5512Z" fill="#F3F2EF"/>
<path d="M59.7845 17.45C64.5979 17.45 68.5001 13.5437 68.5001 8.72502C68.5001 3.90633 64.5979 0 59.7845 0C54.971 0 51.0688 3.90633 51.0688 8.72502C51.0688 13.5437 54.971 17.45 59.7845 17.45Z" fill="#F3F2EF"/>
<path d="M54.5424 145.708C54.5424 148.456 52.3172 150.679 49.5761 150.679C46.835 150.679 44.6099 148.452 44.6099 145.708" stroke="black" stroke-width="3" stroke-miterlimit="10"/>
<path d="M39.8996 143.728C41.5353 143.728 42.8613 142.401 42.8613 140.763C42.8613 139.126 41.5353 137.799 39.8996 137.799C38.264 137.799 36.938 139.126 36.938 140.763C36.938 142.401 38.264 143.728 39.8996 143.728Z" fill="black"/>
<path d="M59.2173 143.728C60.8529 143.728 62.1789 142.401 62.1789 140.763C62.1789 139.126 60.8529 137.799 59.2173 137.799C57.5816 137.799 56.2556 139.126 56.2556 140.763C56.2556 142.401 57.5816 143.728 59.2173 143.728Z" fill="black"/>
<path d="M24.5005 90.2112C24.1972 91.9696 22.5274 93.1524 20.7709 92.8488C19.0144 92.5452 17.8328 90.8735 18.1361 89.1151" stroke="black" stroke-width="3" stroke-miterlimit="10"/>
<path d="M36.6384 92.3008C36.3352 94.0592 34.6653 95.242 32.9088 94.9384C31.1523 94.6348 29.9708 92.9631 30.274 91.2047" stroke="black" stroke-width="3" stroke-miterlimit="10"/>
<path d="M29.2542 97.1344C28.9509 98.8928 27.281 100.076 25.5245 99.772C23.768 99.4684 22.5865 97.7967 22.8898 96.0383" stroke="black" stroke-width="3" stroke-miterlimit="10"/>
<path d="M103.414 44.9853C103.414 38.1843 108.912 32.6804 115.705 32.6804" stroke="white" stroke-width="4" stroke-miterlimit="10"/>
<path d="M24.7644 67.3716C29.1951 62.2146 36.9497 61.635 42.0972 66.0705" stroke="white" stroke-width="4" stroke-miterlimit="10"/>
<path d="M82.3394 72.1776C85.4388 70.8253 89.0425 72.2446 90.3933 75.3514" stroke="white" stroke-width="4" stroke-miterlimit="10"/>
</g>
<defs>
<clipPath id="clip0_1078_21823">
<rect width="137" height="188" fill="white"/>
</clipPath>
</defs>
</svg>
