<svg width="24" height="24" viewBox="0 0 24 24" fill="none" xmlns="http://www.w3.org/2000/svg">
<path fill-rule="evenodd" clip-rule="evenodd" d="M7.08242 4.64964C6.7584 3.78345 5.5332 3.78345 5.20919 4.64964L4.94422 5.35797C4.84283 5.62901 4.62901 5.84283 4.35797 5.94422L3.64964 6.20919C2.78345 6.5332 2.78345 7.7584 3.64964 8.08242L4.35797 8.34738C4.62901 8.44877 4.84283 8.6626 4.94422 8.93364L5.20919 9.64197C5.5332 10.5082 6.7584 10.5082 7.08242 9.64197L7.34738 8.93364C7.44877 8.6626 7.6626 8.44877 7.93364 8.34738L8.64197 8.08242C9.50815 7.7584 9.50815 6.5332 8.64197 6.20919L7.93364 5.94422C7.6626 5.84283 7.44877 5.62901 7.34738 5.35797L7.08242 4.64964ZM6.1458 7.11192C6.1346 7.1233 6.1233 7.1346 6.11192 7.1458C6.1233 7.15701 6.1346 7.1683 6.1458 7.17969C6.15701 7.1683 6.1683 7.15701 6.17969 7.1458C6.1683 7.1346 6.15701 7.1233 6.1458 7.11192Z" fill="currentColor"/>
<path fill-rule="evenodd" clip-rule="evenodd" d="M14.0824 5.64964C13.7584 4.78345 12.5332 4.78346 12.2092 5.64964L10.8553 9.26903C10.7539 9.54006 10.5401 9.75389 10.269 9.85528L6.64964 11.2092C5.78345 11.5332 5.78346 12.7584 6.64964 13.0824L10.269 14.4363C10.5401 14.5377 10.7539 14.7515 10.8553 15.0226L12.2092 18.642C12.5332 19.5082 13.7584 19.5082 14.0824 18.642L15.4363 15.0226C15.5377 14.7515 15.7515 14.5377 16.0226 14.4363L19.642 13.0824C20.5082 12.7584 20.5082 11.5332 19.642 11.2092L16.0226 9.85528C15.7515 9.75389 15.5377 9.54006 15.4363 9.26902L14.0824 5.64964ZM13.1458 8.8542L12.7285 9.96975C12.4243 10.7829 11.7829 11.4243 10.9697 11.7285L9.8542 12.1458L10.9697 12.5631C11.7829 12.8673 12.4243 13.5087 12.7285 14.3219L13.1458 15.4374L13.5631 14.3219C13.8673 13.5087 14.5087 12.8673 15.3219 12.5631L16.4374 12.1458L15.3219 11.7285C14.5087 11.4243 13.8673 10.7829 13.5631 9.96975L13.1458 8.8542Z" fill="currentColor"/>
<path d="M5.70919 15.6496C6.0332 14.7835 7.2584 14.7835 7.58242 15.6496L7.71127 15.9941C7.81265 16.2651 8.02648 16.479 8.29752 16.5803L8.64197 16.7092C9.50815 17.0332 9.50815 18.2584 8.64197 18.5824L8.29752 18.7113C8.02648 18.8127 7.81265 19.0265 7.71127 19.2975L7.58242 19.642C7.2584 20.5082 6.0332 20.5082 5.70919 19.642L5.58034 19.2975C5.47895 19.0265 5.26513 18.8127 4.99409 18.7113L4.64964 18.5824C3.78345 18.2584 3.78345 17.0332 4.64964 16.7092L4.99409 16.5803C5.26512 16.479 5.47895 16.2651 5.58034 15.9941L5.70919 15.6496Z" fill="currentColor"/>
</svg>
