<svg width="24" height="24" viewBox="0 0 24 24" fill="none" xmlns="http://www.w3.org/2000/svg">
<path d="M10.1016 8.92911L9.165 8.57875L10.1016 8.92911L12 3.8542L13.8984 8.92911C14.1012 9.47119 14.5288 9.89884 15.0709 10.1016L20.1458 12L15.0709 13.8984C14.5288 14.1012 14.1012 14.5288 13.8984 15.0709L12 20.1458L10.1016 15.0709C9.89884 14.5288 9.47118 14.1012 8.92911 13.8984L8.57875 14.835L8.92911 13.8984L3.8542 12L8.92911 10.1016C9.47119 9.89884 9.89884 9.47118 10.1016 8.92911Z" stroke="#222222" stroke-width="2"/>
<path d="M18 3.8542L18.265 4.56253C18.4677 5.1046 18.8954 5.53226 19.4375 5.73503L20.1458 6L19.4375 6.26497C18.8954 6.46774 18.4677 6.8954 18.265 7.43747L18 8.1458L17.735 7.43747C17.5323 6.8954 17.1046 6.46774 16.5625 6.26497L15.8542 6L16.5625 5.73503C17.1046 5.53226 17.5323 5.1046 17.735 4.56253L18 3.8542Z" fill="#222222" stroke="#222222" stroke-width="2"/>
</svg>
