<svg width="24" height="24" viewBox="0 0 24 24" fill="none" xmlns="http://www.w3.org/2000/svg">
<path d="M11 13H13V15H11V13Z" fill="#222222"/>
<path d="M17 15V13H15V15H17Z" fill="#222222"/>
<path d="M7 13H9V15H7V13Z" fill="#222222"/>
<path d="M9 18V16H7V18H9Z" fill="#222222"/>
<path d="M11 16H13V18H11V16Z" fill="#222222"/>
<path d="M17 18V16H15V18H17Z" fill="#222222"/>
<path fill-rule="evenodd" clip-rule="evenodd" d="M9 3C9 2.44772 8.55228 2 8 2C7.44772 2 7 2.44772 7 3V4H5C3.34315 4 2 5.34315 2 7V19C2 20.6569 3.34315 22 5 22H19C20.6569 22 22 20.6569 22 19V7C22 5.34315 20.6569 4 19 4H17V3C17 2.44772 16.5523 2 16 2C15.4477 2 15 2.44772 15 3V4H9V3ZM15 6H9V7C9 7.55228 8.55228 8 8 8C7.44771 8 7 7.55228 7 7V6H5C4.44772 6 4 6.44772 4 7V9H20V7C20 6.44771 19.5523 6 19 6H17V7C17 7.55228 16.5523 8 16 8C15.4477 8 15 7.55228 15 7V6ZM4 11H20V19C20 19.5523 19.5523 20 19 20H5C4.44772 20 4 19.5523 4 19V11Z" fill="#222222"/>
</svg>
