<svg width="24" height="24" viewBox="0 0 24 24" fill="none" xmlns="http://www.w3.org/2000/svg">
<g clip-path="url(#clip0_1078_16332)">
<path d="M17 13.21V19.21H5V7.21H11V5.21H5C3.9 5.21 3 6.11 3 7.21V19.21C3 20.31 3.9 21.21 5 21.21H17C18.1 21.21 19 20.31 19 19.21V13.21H17Z" fill="#222222"/>
<path d="M18.5 5C18.61 5 18.82 5.03 19 5.21C19.27 5.48 19.27 5.93 19 6.2L10.99 14.21H10V13.22L18.01 5.21C18.19 5.03 18.4 5 18.51 5M18.5 3C17.81 3 17.12 3.26 16.59 3.79L8 12.39V16.21H11.82L20.42 7.61C21.47 6.56 21.47 4.84 20.42 3.79C19.89 3.26 19.2 3 18.51 3L18.5 3Z" fill="#222222"/>
</g>
<defs>
<clipPath id="clip0_1078_16332">
<rect width="18.21" height="18.21" fill="white" transform="translate(3 3)"/>
</clipPath>
</defs>
</svg>
