<svg width="24" height="24" viewBox="0 0 24 24" fill="none" xmlns="http://www.w3.org/2000/svg">
<g clip-path="url(#clip0_1046_6401)">
<path d="M20.61 9.51L12.61 3.21C12.43 3.07 12.21 3 12 3C11.79 3 11.57 3.07 11.39 3.21L3.39 9.51C3.15 9.7 3 10 3 10.31V19.93C3 20.49 3.45 20.94 4 20.94H20C20.55 20.94 21 20.49 21 19.93V10.31C21 10 20.86 9.7 20.61 9.51ZM11 18.94V13.8C11 13.33 11.39 12.94 11.86 12.94H12.14C12.61 12.94 13 13.33 13 13.8V18.94H11ZM19 18.94H15V13.8C15 12.23 13.71 10.94 12.14 10.94H11.86C10.29 10.94 9 12.23 9 13.8V18.94H5V10.78L12 5.27L19 10.78V18.94Z" />
</g>
<defs>
<clipPath id="clip0_1046_6401">
<rect width="18" height="17.94"  transform="translate(3 3)"/>
</clipPath>
</defs>
</svg>