<?xml version="1.0" encoding="UTF-8"?>
<svg id="Layer_2" data-name="Layer 2" xmlns="http://www.w3.org/2000/svg" viewBox="0 0 160.17 160">
  <defs>
    <style>
      .cls-1 {
        fill: #065;
      }

      .cls-1, .cls-2, .cls-3 {
        stroke-width: 0px;
      }

      .cls-2 {
        fill: #000;
      }

      .cls-3 {
        fill: #afcfcc;
      }
    </style>
  </defs>
  <g id="Layer_5" data-name="Layer 5">
    <g>
      <circle class="cls-3" cx="70.51" cy="89.49" r="70.51"/>
      <path class="cls-1" d="M117.96,2.5l10.12,27.34c.39,1.05,1.21,1.88,2.26,2.26l27.34,10.12c3.33,1.23,3.33,5.95,0,7.18l-27.34,10.12c-1.05.39-1.88,1.21-2.26,2.26l-10.12,27.34c-1.23,3.33-5.95,3.33-7.18,0l-10.12-27.34c-.39-1.05-1.21-1.88-2.26-2.26l-27.34-10.12c-3.33-1.23-3.33-5.95,0-7.18l27.34-10.12c1.05-.39,1.88-1.21,2.26-2.26l10.12-27.34c1.23-3.33,5.95-3.33,7.18,0Z"/>
      <g>
        <path class="cls-2" d="M34.14,93.59c-4.17,0-7.56-3.39-7.56-7.56h1.61c0,3.28,2.67,5.96,5.96,5.96s5.96-2.67,5.96-5.96h1.61c0,4.17-3.39,7.56-7.56,7.56Z"/>
        <path class="cls-2" d="M59.91,93.59c-4.17,0-7.56-3.39-7.56-7.56h1.61c0,3.28,2.67,5.96,5.96,5.96s5.96-2.67,5.96-5.96h1.61c0,4.17-3.39,7.56-7.56,7.56Z"/>
        <path class="cls-2" d="M46.39,106.17c-4.17,0-7.56-3.39-7.56-7.56h1.61c0,3.28,2.67,5.96,5.96,5.96s5.96-2.67,5.96-5.96h1.61c0,4.17-3.39,7.56-7.56,7.56Z"/>
      </g>
    </g>
  </g>
</svg>