<svg width="24" height="24" viewBox="0 0 24 24" fill="none" xmlns="http://www.w3.org/2000/svg">
<path d="M9 9C8.44772 9 8 9.44772 8 10C8 10.5523 8.44772 11 9 11H15C15.5523 11 16 10.5523 16 10C16 9.44772 15.5523 9 15 9H9Z" fill="#222222"/>
<path d="M9 13C8.44772 13 8 13.4477 8 14C8 14.5523 8.44772 15 9 15H15C15.5523 15 16 14.5523 16 14C16 13.4477 15.5523 13 15 13H9Z" fill="#222222"/>
<path d="M8 18C8 17.4477 8.44772 17 9 17H13C13.5523 17 14 17.4477 14 18C14 18.5523 13.5523 19 13 19H9C8.44772 19 8 18.5523 8 18Z" fill="#222222"/>
<path fill-rule="evenodd" clip-rule="evenodd" d="M8 2C8.55228 2 9 2.44772 9 3V4H11V3C11 2.44772 11.4477 2 12 2C12.5523 2 13 2.44772 13 3V4H15V3C15 2.44772 15.4477 2 16 2C16.5523 2 17 2.44772 17 3V4H19C19.5523 4 20 4.44772 20 5V21C20 21.5523 19.5523 22 19 22H5C4.44772 22 4 21.5523 4 21V5C4 4.44772 4.44772 4 5 4H7V3C7 2.44772 7.44772 2 8 2ZM13 6H15V7C15 7.55228 15.4477 8 16 8C16.5523 8 17 7.55228 17 7V6H18V20H6V6H7V7C7 7.55228 7.44772 8 8 8C8.55228 8 9 7.55228 9 7V6H11V7C11 7.55228 11.4477 8 12 8C12.5523 8 13 7.55228 13 7V6Z" fill="#222222"/>
</svg>
