<svg width="24" height="24" viewBox="0 0 24 24"  xmlns="http://www.w3.org/2000/svg">
<g clip-path="url(#clip0_1147_6128)">
<path d="M11.98 2C6.47 2 2 6.47 2 11.98C2 14.24 2.76 16.31 4.02 17.98C4.43 18.52 4.89 19.02 5.4 19.47C7.16 21.01 9.45 21.95 11.97 21.95C14.49 21.95 16.79 21.01 18.54 19.47C19.05 19.02 19.51 18.52 19.92 17.98C21.18 16.31 21.94 14.24 21.94 11.98C21.95 6.47 17.48 2 11.98 2ZM11.98 19.95C9.98 19.95 8.15 19.2 6.74 17.97C8.14 16.74 9.97 15.99 11.98 15.99C13.99 15.99 15.81 16.74 17.22 17.97C15.82 19.2 13.99 19.95 11.98 19.95ZM18.55 16.48C16.79 14.94 14.5 14 11.98 14C9.46 14 7.16 14.94 5.41 16.48C4.53 15.2 4.01 13.64 4.01 11.97C4.01 7.57 7.59 3.99 11.99 3.99C16.39 3.99 19.97 7.57 19.97 11.97C19.97 13.64 19.45 15.19 18.57 16.48H18.55Z" />
<path d="M11.98 7.44C13.08 7.44 13.98 8.34 13.98 9.44C13.98 10.54 13.08 11.44 11.98 11.44C10.88 11.44 9.97998 10.54 9.97998 9.44C9.97998 8.34 10.88 7.44 11.98 7.44ZM11.98 5.44C9.76998 5.44 7.97998 7.23 7.97998 9.44C7.97998 11.65 9.76998 13.44 11.98 13.44C14.19 13.44 15.98 11.65 15.98 9.44C15.98 7.23 14.19 5.44 11.98 5.44Z" />
</g>
<defs>
<clipPath id="clip0_1147_6128">
<rect width="19.95" height="19.95"  transform="translate(2 2)"/>
</clipPath>
</defs>
</svg>
