<svg width="24" height="24" viewBox="0 0 24 24" fill="none" xmlns="http://www.w3.org/2000/svg">
<path fill-rule="evenodd" clip-rule="evenodd" d="M3 14C2.44772 14 2 13.5523 2 13V6C2 5.44772 2.44772 5 3 5H18.5858L17.2929 3.70711C16.9024 3.31658 16.9024 2.68342 17.2929 2.29289C17.6834 1.90237 18.3166 1.90237 18.7071 2.29289L21.7065 5.29231L21.7069 5.29269L21.7071 5.29289C21.9016 5.48739 21.9992 5.74208 22 5.997L22 6L22 6.003C21.9996 6.1375 21.9727 6.26575 21.9241 6.38278C21.8757 6.49986 21.804 6.6096 21.7092 6.70498L21.7067 6.70756L21.7065 6.70769L18.7071 9.70711C18.3166 10.0976 17.6834 10.0976 17.2929 9.70711C16.9024 9.31658 16.9024 8.68342 17.2929 8.29289L18.5858 7H4V13C4 13.5523 3.55229 14 3 14ZM20 11C20 10.4477 20.4477 10 21 10C21.5523 10 22 10.4477 22 11V18C22 18.5523 21.5523 19 21 19H5.41421L6.70711 20.2929C7.09763 20.6834 7.09763 21.3166 6.70711 21.7071C6.31658 22.0976 5.68342 22.0976 5.29289 21.7071L2.29348 18.7077L2.29309 18.7073L2.29289 18.7071C2.09839 18.5126 2.00076 18.2579 2 18.003L2 18L2 17.997C2.0004 17.8625 2.02735 17.7343 2.07588 17.6172C2.12432 17.5001 2.19595 17.3904 2.29078 17.295L2.29335 17.2924L2.29348 17.2923L5.29289 14.2929C5.68342 13.9024 6.31658 13.9024 6.70711 14.2929C7.09763 14.6834 7.09763 15.3166 6.70711 15.7071L5.41421 17H20V11Z" fill="#222222"/>
</svg>
