<svg width="24" height="24" viewBox="0 0 24 24" fill="none" xmlns="http://www.w3.org/2000/svg">
<path d="M11.6822 17.9484C11.8033 17.989 11.9297 18.0054 12.0544 17.9985C12.195 17.991 12.3279 17.9544 12.4473 17.8947C12.5071 17.8648 12.5643 17.8288 12.6179 17.7866L16.6001 14.8C17.0419 14.4686 17.1314 13.8418 16.8001 13.4C16.4687 12.9582 15.8419 12.8686 15.4001 13.2L13.0001 15V3C13.0001 2.44771 12.5523 2 12.0001 2C11.4478 2 11.0001 2.44771 11.0001 3V15L8.60006 13.2C8.15823 12.8686 7.53143 12.9582 7.20006 13.4C6.86869 13.8418 6.95823 14.4686 7.40006 14.8L11.3822 17.7866C11.4362 17.8291 11.4938 17.8653 11.5541 17.8953C11.5953 17.9158 11.6381 17.9336 11.6822 17.9484Z" fill="#222222"/>
<path d="M3 20C2.44772 20 2 20.4477 2 21C2 21.5523 2.44772 22 3 22H21C21.5523 22 22 21.5523 22 21C22 20.4477 21.5523 20 21 20H3Z" fill="#222222"/>
</svg>
