<svg width="24" height="24" viewBox="0 0 24 24" fill="none" xmlns="http://www.w3.org/2000/svg">
<path d="M16.7071 10.2929C17.0976 10.6834 17.0976 11.3166 16.7071 11.7071L11.7072 16.7071C11.695 16.7192 11.6825 16.7311 11.6699 16.7425C11.2773 17.0972 10.6712 17.0854 10.2929 16.7071L7.29289 13.7071C6.90237 13.3166 6.90237 12.6834 7.29289 12.2929C7.68342 11.9024 8.31658 11.9024 8.70711 12.2929L11 14.5858L15.2929 10.2929C15.6834 9.90237 16.3166 9.90237 16.7071 10.2929Z" fill="#FBFBFB"/>
<path fill-rule="evenodd" clip-rule="evenodd" d="M9 2C7.89543 2 7 2.89543 7 4L6 4C4.89543 4 4 4.89543 4 6V20C4 21.1046 4.89543 22 6 22H18C19.1046 22 20 21.1046 20 20V6C20 4.89543 19.1046 4 18 4H17C17 2.89543 16.1046 2 15 2H9ZM15 4H9V6H15V4ZM15 8C16.1046 8 17 7.10457 17 6H18V20H6V6H7C7 7.10457 7.89543 8 9 8H15Z" fill="#FBFBFB"/>
</svg>
