<svg width="24" height="24" viewBox="0 0 24 24" fill="none" xmlns="http://www.w3.org/2000/svg">
<path d="M6.28437 10.6986L4.29289 8.70714C3.90237 8.31662 3.90237 7.68345 4.29289 7.29293C4.68342 6.90241 5.31658 6.90241 5.70711 7.29293L7.07422 8.66004L11.3753 5.21917C11.8066 4.87416 12.4359 4.94408 12.7809 5.37534C13.1259 5.8066 13.056 6.4359 12.6247 6.78091L7.63412 10.7734C7.55553 10.838 7.46938 10.8888 7.37892 10.9257C7.23962 10.9828 7.0911 11.0067 6.9447 10.9985C6.70143 10.985 6.46399 10.8831 6.28437 10.6986Z" fill="#222222"/>
<path d="M11 10C11 9.44775 11.4477 9.00004 12 9.00004L19 9.00004C19.5523 9.00004 20 9.44775 20 10C20 10.5523 19.5523 11 19 11L12 11C11.4477 11 11 10.5523 11 10Z" fill="#222222"/>
<path d="M10 14C10 13.4478 10.4477 13 11 13L19 13C19.5523 13 20 13.4478 20 14C20 14.5523 19.5523 15 19 15L11 15C10.4477 15 10 14.5523 10 14Z" fill="#222222"/>
<path d="M11 17C10.4477 17 10 17.4478 10 18C10 18.5523 10.4477 19 11 19L19 19C19.5523 19 20 18.5523 20 18C20 17.4478 19.5523 17 19 17L11 17Z" fill="#222222"/>
<path d="M7 17C6.44772 17 6 17.4478 6 18C6 18.5523 6.44772 19 7 19C7.55228 19 8 18.5523 8 18C8 17.4478 7.55228 17 7 17Z" fill="#222222"/>
<path d="M6 14C6 13.4478 6.44772 13 7 13C7.55228 13 8 13.4478 8 14C8 14.5523 7.55228 15 7 15C6.44772 15 6 14.5523 6 14Z" fill="#222222"/>
</svg>
